<svg id="visual" viewBox="0 0 900 600" width="900" height="600" xmlns="http://www.w3.org/2000/svg" version="1.1">
    <g transform="translate(0, 0)">
        <path d="M486.7 0C471.9 24.1 457 48.2 444.5 70.4C431.9 92.6 421.8 113 416.6 135.3C411.4 157.7 411.2 182.2 409.9 208.8C408.6 235.5 406.2 264.3 393.8 286.1C381.4 307.9 358.9 322.6 338.7 338.7C318.5 354.9 300.7 372.5 279.8 385.1C258.9 397.7 234.9 405.3 212.5 417C190 428.7 169 444.4 145.2 447C121.5 449.6 94.9 439 70.2 443.5C45.6 447.9 22.8 467.3 0 486.7L0 0Z"></path>
    </g>
</svg>